# xmcd
#
# Track frame offsets:
# 225
# 27097
# 55416
# 71447
# 92248
# 115918
# 133312
# 149114
# 176350
# 199816
# 220770
#
# Disc length: 3186 seconds
#
#
# Revision: 0
# Processed by: cddbd v1.5PL3 Copyright (c) Steve Scherf et al.
# Submitted via: FreeRIP 2.30 
#
DISCID=ab0c6f0b
DTITLE=Edward Taylor - Lookin' For Trouble
DYEAR=1900
DGENRE=Blues
TTITLE0=Goin' Upside Your Head
TTITLE1=Bad Boy
TTITLE2=Lookin' For Trouble
TTITLE3=Ain't Gonna Cry
TTITLE4=Down In Virginia
TTITLE5=Soul Brother
TTITLE6=I'm Gonna Miss You
TTITLE7=Big Town Playboy
TTITLE8=Dust My Broom
TTITLE9=Greyhound Blues
TTITLE10=Tell Me Mama
EXTD=
EXTT0=
EXTT1=
EXTT2=
EXTT3=
EXTT4=
EXTT5=
EXTT6=
EXTT7=
EXTT8=
EXTT9=
EXTT10=
PLAYORDER=
